<?xml version="1.0" encoding="UTF-8"?><!DOCTYPE svg PUBLIC "-//W3C//DTD SVG 1.1//EN" "http://www.w3.org/Graphics/SVG/1.1/DTD/svg11.dtd"><svg xmlns="http://www.w3.org/2000/svg" xmlns:xlink="http://www.w3.org/1999/xlink" version="1.1" width="32" height="32" viewBox="0 0 32 32"><path fill="#444" d="M25.674 9.221H6.326c-.899 0-1.63.731-1.63 1.63V21.72c0 .899.731 1.63 1.63 1.63h19.348c.899 0 1.63-.731 1.63-1.63V10.851c0-.899-.731-1.63-1.63-1.63zm-8.261 11.301l-2.826.003v-4.239l-2.12 2.717-2.12-2.717v4.239H7.521v-8.478h2.826l2.12 2.826 2.12-2.826 2.826-.003v8.478zm4.219.707l-3.512-4.943h2.119v-4.239h2.826v4.239h2.119l-3.553 4.943z"/><metadata><rdf:RDF xmlns:rdf="http://www.w3.org/1999/02/22-rdf-syntax-ns#" xmlns:rdfs="http://www.w3.org/2000/01/rdf-schema#" xmlns:dc="http://purl.org/dc/elements/1.1/"><rdf:Description about="https://iconscout.com/legal#licenses" dc:title="markdown" dc:description="markdown" dc:publisher="Iconscout" dc:date="2017-09-24" dc:format="image/svg+xml" dc:language="en"><dc:creator><rdf:Bag><rdf:li>Vorillaz</rdf:li></rdf:Bag></dc:creator></rdf:Description></rdf:RDF></metadata></svg>